<?xml version="1.0" standalone="no"?>
<!DOCTYPE svg PUBLIC "-//W3C//DTD SVG 20010904//EN"
 "http://www.w3.org/TR/2001/REC-SVG-20010904/DTD/svg10.dtd">
<svg version="1.0" xmlns="http://www.w3.org/2000/svg"
 width="92.000000pt" height="92.000000pt" viewBox="0 0 92.000000 92.000000"
 preserveAspectRatio="xMidYMid meet">

<g transform="translate(0.000000,92.000000) scale(0.100000,-0.100000)"
fill="#000000" stroke="none">
<path d="M0 824 c0 -61 4 -93 10 -89 5 3 10 1 10 -4 0 -6 -4 -11 -10 -11 -5 0
-10 -13 -10 -30 0 -22 5 -30 18 -30 10 0 22 -3 26 -7 10 -10 48 -14 42 -5 -3
5 12 4 34 -2 31 -8 40 -15 40 -31 0 -12 6 -30 14 -41 12 -15 17 -17 27 -6 7 6
23 12 35 12 12 0 27 7 34 15 7 8 9 15 5 15 -4 0 -2 7 5 15 11 13 6 14 -41 10
-39 -3 -48 -2 -31 5 12 5 22 14 22 20 0 15 60 12 66 -4 3 -8 19 -17 36 -20 35
-7 31 -18 -10 -24 -32 -4 -36 -7 -27 -21 13 -22 56 -11 95 26 28 27 36 41 29
49 -7 8 -6 14 1 19 15 9 50 -4 50 -19 0 -18 33 -46 54 -46 14 0 17 5 12 24 -3
14 -2 28 4 31 6 4 10 -6 10 -24 0 -36 15 -41 95 -26 11 2 26 4 34 4 8 1 11 8
8 21 -7 27 4 32 55 24 24 -4 37 -9 30 -12 -19 -6 -15 -60 5 -64 9 -2 17 -13
18 -25 1 -12 -2 -20 -7 -17 -12 8 -10 -13 5 -37 10 -17 9 -23 -10 -39 -20 -15
-21 -20 -8 -30 17 -14 9 -34 -11 -26 -8 3 -14 1 -14 -5 0 -6 9 -13 19 -16 11
-3 22 -11 25 -19 3 -8 16 -14 28 -15 l23 0 -22 -11 c-17 -8 -28 -7 -48 6 -14
9 -23 21 -20 25 6 11 -44 61 -61 61 -18 0 -35 -35 -28 -54 8 -22 -21 -21 -38
2 -19 25 -55 43 -73 36 -8 -3 -12 -10 -10 -15 3 -5 -2 -20 -11 -34 -10 -15
-12 -25 -5 -25 16 0 13 -34 -6 -76 -17 -34 -17 -36 0 -46 14 -7 16 -17 11 -46
-9 -49 -30 -89 -53 -102 -16 -8 -24 -3 -50 39 -17 26 -31 53 -31 60 0 20 -53
89 -73 95 -10 2 -31 0 -48 -4 -24 -7 -37 -4 -66 16 -20 13 -39 24 -42 24 -3 0
-16 -17 -29 -38 -22 -35 -22 -36 -1 -12 l22 25 -8 -24 c-4 -15 -3 -26 5 -31 9
-6 4 -13 -15 -26 -21 -14 -30 -15 -33 -6 -2 6 -10 12 -18 12 -9 0 -12 5 -8 12
4 7 -2 5 -13 -4 -11 -10 -31 -19 -44 -20 -24 -2 -25 -3 -18 -58 5 -33 4 -56
-1 -58 -6 -2 -10 -24 -10 -48 l0 -44 460 0 460 0 0 147 0 147 -29 -28 -30 -29
-7 27 c-4 17 -1 33 7 44 22 27 41 64 36 69 -3 2 -15 -1 -28 -7 -19 -11 -21
-10 -16 4 5 13 2 15 -17 10 -21 -5 -24 -1 -30 43 -4 29 -2 49 4 51 5 2 10 11
10 20 0 8 8 24 17 34 14 16 15 21 3 28 -10 6 -7 9 11 12 16 2 23 9 22 21 -1
15 4 17 23 13 l24 -6 0 160 0 160 -460 0 -460 0 0 -96z m200 6 c0 -5 -14 -10
-31 -10 -17 0 -28 4 -24 10 3 6 17 10 31 10 13 0 24 -4 24 -10z m-123 -106
c-3 -3 -12 -4 -19 -1 -8 3 -5 6 6 6 11 1 17 -2 13 -5z m493 0 c0 -3 -6 -11
-13 -18 -10 -10 -15 -10 -24 -1 -7 7 -9 16 -6 19 8 8 43 8 43 0z m-405 -19 c0
-18 -62 -18 -69 0 -5 13 1 16 32 13 20 -2 37 -7 37 -13z m265 7 c0 -14 -11
-21 -26 -15 -8 3 -11 9 -8 14 7 11 34 12 34 1z m217 2 c-3 -3 -12 -4 -19 -1
-8 3 -5 6 6 6 11 1 17 -2 13 -5z m258 -5 c10 -15 -1 -23 -20 -15 -9 3 -13 10
-10 16 8 13 22 13 30 -1z m-295 -9 c0 -5 -2 -10 -4 -10 -3 0 -8 5 -11 10 -3 6
-1 10 4 10 6 0 11 -4 11 -10z m243 -17 c-7 -2 -19 -2 -25 0 -7 3 -2 5 12 5 14
0 19 -2 13 -5z m-123 -370 c25 -22 25 -45 0 -68 -19 -18 -20 -17 -20 5 0 13
-7 31 -16 41 -16 17 -12 39 6 39 6 0 19 -8 30 -17z m-130 -8 c0 -8 -4 -15 -9
-15 -13 0 -22 16 -14 24 11 11 23 6 23 -9z m-20 -95 c0 -42 -14 -54 -23 -20
-6 24 2 60 14 60 5 0 9 -18 9 -40z"/>
<path d="M422 637 c-29 -31 -28 -39 4 -27 16 7 23 7 19 0 -10 -16 15 -12 31 5
14 14 11 19 -8 16 -5 0 -7 4 -5 10 4 22 -19 19 -41 -4z"/>
<path d="M0 631 c0 -6 6 -11 14 -11 23 0 29 -31 6 -37 -26 -7 -25 -15 1 -32
20 -12 21 -11 16 8 -3 13 1 25 11 32 13 7 14 12 4 15 -6 3 -10 10 -6 15 3 5 1
9 -5 9 -5 0 -16 3 -25 6 -9 3 -16 1 -16 -5z"/>
<path d="M712 613 c2 -10 11 -19 21 -21 24 -5 21 15 -4 28 -18 10 -20 9 -17
-7z"/>
<path d="M673 601 c0 -11 6 -17 14 -14 18 7 17 33 -1 33 -8 0 -14 -8 -13 -19z"/>
<path d="M78 593 c7 -3 16 -2 19 1 4 3 -2 6 -13 5 -11 0 -14 -3 -6 -6z"/>
<path d="M92 562 c-20 -6 35 -52 64 -52 21 0 25 3 17 11 -6 6 -9 18 -6 25 3 8
1 14 -3 15 -40 4 -64 4 -72 1z"/>
<path d="M420 540 c0 -16 33 -50 49 -50 11 0 11 3 -2 18 -10 10 -17 24 -17 30
0 7 -7 12 -15 12 -8 0 -15 -4 -15 -10z"/>
<path d="M348 531 c-29 -10 -6 -31 25 -23 24 6 25 8 10 18 -10 6 -26 8 -35 5z"/>
<path d="M260 510 c0 -5 5 -10 11 -10 5 0 7 5 4 10 -3 6 -8 10 -11 10 -2 0 -4
-4 -4 -10z"/>
<path d="M218 497 c-8 -7 -20 -20 -28 -30 -12 -17 -11 -18 16 -11 16 4 39 12
52 18 l23 12 -24 11 c-19 9 -29 9 -39 0z"/>
<path d="M290 486 c0 -8 -8 -16 -17 -18 -14 -3 -11 -8 14 -21 29 -15 31 -15
38 0 5 14 8 15 14 4 6 -9 18 -11 35 -7 33 8 34 26 2 26 -14 0 -28 5 -32 11 -5
8 -9 8 -14 -1 -5 -8 -12 -7 -24 5 -14 14 -16 14 -16 1z"/>
<path d="M144 447 c1 -11 7 -22 14 -25 17 -5 16 34 -2 41 -9 4 -13 -2 -12 -16z"/>
<path d="M470 370 c14 -11 29 -20 34 -20 5 0 -3 9 -17 20 -14 11 -29 20 -34
20 -4 0 3 -9 17 -20z"/>
</g>
</svg>
