<?xml version="1.0" standalone="no"?>
<!DOCTYPE svg PUBLIC "-//W3C//DTD SVG 20010904//EN"
 "http://www.w3.org/TR/2001/REC-SVG-20010904/DTD/svg10.dtd">
<svg version="1.0" xmlns="http://www.w3.org/2000/svg"
 width="330.000000pt" height="220.000000pt" viewBox="0 0 330.000000 220.000000"
 preserveAspectRatio="xMidYMid meet">

<g transform="translate(0.000000,220.000000) scale(0.100000,-0.100000)"
fill="#000000" stroke="none">
<path d="M2 2143 l3 -57 180 -59 180 -58 78 15 c42 9 86 16 97 16 23 0 35 -16
19 -26 -8 -4 -9 -3 -5 4 4 7 3 12 -2 12 -15 0 -46 -39 -49 -62 -3 -20 -2 -21
15 -5 10 9 24 17 30 17 6 0 17 9 24 19 22 32 97 45 221 38 62 -3 136 -11 164
-17 l53 -12 -49 -38 c-26 -21 -79 -72 -117 -114 -38 -42 -75 -76 -82 -76 -7 0
-11 -4 -7 -9 3 -6 -17 -49 -44 -97 -28 -48 -60 -115 -73 -150 -25 -71 -24 -70
-113 -49 -101 25 -106 21 -53 -31 l46 -47 -25 -73 -25 -74 -43 37 c-51 44
-133 144 -171 208 -20 34 -34 47 -62 54 -21 6 -72 19 -114 29 l-78 20 0 -465
0 -466 97 7 c53 4 98 8 100 9 1 2 -15 49 -37 105 -22 57 -40 105 -40 107 0 3
19 14 41 26 l42 21 83 -89 c46 -48 84 -84 84 -78 0 5 29 -20 65 -55 l66 -65
-20 55 c-10 30 -40 108 -65 173 -25 66 -46 125 -46 132 0 13 145 78 162 73 5
-2 32 -57 59 -123 26 -66 57 -137 69 -157 44 -80 214 -497 206 -505 -8 -8
-158 -42 -187 -43 -20 0 -44 20 -105 86 -144 157 -176 189 -170 169 4 -10 29
-79 57 -152 27 -74 47 -138 44 -143 -3 -6 -32 -10 -63 -10 l-58 0 -53 138
c-29 75 -57 141 -61 145 -7 9 -81 -2 -202 -29 l-68 -16 0 -204 0 -204 833 2
c457 1 807 4 777 8 -46 6 -39 7 45 7 63 0 89 -2 70 -7 -16 -4 331 -8 773 -9
l802 -1 0 819 c0 646 -3 820 -13 824 -9 4 -9 6 1 6 9 1 12 63 12 276 l0 275
-1650 0 -1651 0 3 -57z m1718 -103 c0 -5 -4 -10 -10 -10 -5 0 -10 5 -10 10 0
6 5 10 10 10 6 0 10 -4 10 -10z m-70 -20 c0 -5 -5 -10 -11 -10 -5 0 -7 5 -4
10 3 6 8 10 11 10 2 0 4 -4 4 -10z m40 -36 c0 -8 7 -14 16 -14 11 0 14 -6 9
-20 -4 -13 -2 -20 7 -20 7 0 19 -9 26 -20 7 -11 22 -20 35 -19 l22 0 -21 9
c-28 11 -36 24 -28 44 8 20 28 21 44 1 11 -14 15 -14 37 1 14 9 29 12 33 7 14
-15 18 -112 5 -117 -7 -2 -15 -19 -20 -38 -4 -18 -9 -27 -12 -20 -7 18 -43 15
-50 -5 -7 -20 -91 -124 -109 -135 -12 -8 -29 -46 -38 -88 -3 -14 -20 -36 -38
-49 -18 -13 -24 -20 -13 -16 11 4 36 11 55 15 19 4 46 10 60 14 24 6 32 -5
149 -194 68 -111 126 -199 128 -196 4 4 -30 393 -41 463 -3 20 6 25 76 49 44
14 104 32 133 39 l53 12 128 -188 c70 -104 129 -187 131 -185 3 3 -38 193 -81
374 -14 62 -14 63 7 71 46 17 167 43 179 38 8 -3 37 -137 83 -382 62 -337 72
-378 90 -385 26 -10 143 -133 201 -212 56 -76 119 -205 139 -283 35 -139 13
-231 -85 -343 -118 -138 -201 -169 -423 -159 -188 8 -416 70 -587 158 -96 50
-96 49 -59 108 l32 51 -46 42 c-69 65 -86 172 -42 257 l15 31 39 -26 39 -25
39 20 c40 21 40 27 0 12 -24 -9 -31 -1 -158 182 -73 106 -156 224 -184 262
-28 39 -87 121 -130 183 -74 106 -100 138 -74 91 21 -40 -7 -43 -30 -4 -19 32
-25 36 -48 30 -35 -8 -223 -88 -219 -92 2 -2 50 15 107 37 57 22 107 39 111
38 4 -2 27 -44 52 -94 l44 -92 -71 -27 c-40 -14 -99 -37 -132 -50 -108 -44
-209 -78 -239 -81 -16 -2 -31 -6 -34 -9 -3 -3 32 -106 43 -122 1 -2 71 22 156
53 222 80 270 97 272 93 44 -82 83 -170 77 -174 -10 -6 -252 -95 -357 -132
-40 -14 -73 -29 -73 -33 0 -12 42 -124 51 -133 4 -5 111 28 239 72 128 45 234
80 236 78 13 -13 92 -187 86 -190 -10 -6 -471 -157 -616 -202 -65 -20 -122
-33 -126 -28 -7 7 -309 777 -313 797 -1 5 23 19 53 31 60 24 386 150 410 158
12 4 11 6 -2 6 -10 1 -18 8 -18 16 0 8 -27 43 -60 77 -47 48 -57 64 -49 75 9
10 8 13 -4 13 -24 0 -31 19 -15 38 8 9 15 28 16 41 1 26 57 113 100 156 26 26
26 27 9 57 -9 16 -15 34 -11 39 3 5 31 21 62 35 31 15 64 33 72 40 16 13 76
22 203 29 85 5 108 12 86 26 -15 9 4 13 47 10 11 -1 28 7 39 19 13 14 22 17
30 10 9 -8 14 -6 19 5 7 19 26 11 26 -11z m1199 -130 c17 -14 45 -55 62 -91
30 -63 31 -67 13 -80 -27 -20 -42 -16 -59 17 -16 31 -24 34 -62 24 -26 -7 -31
-40 -10 -67 20 -28 107 -38 214 -26 120 13 133 5 19 -11 l-86 -12 27 -32 c33
-39 67 -116 93 -209 38 -138 21 -214 -55 -248 -38 -17 -52 -19 -77 -10 -49 17
-96 58 -136 119 -20 32 -44 62 -52 69 -13 10 -6 16 40 36 93 42 95 42 120 2
20 -33 47 -55 67 -55 5 0 15 20 22 45 11 39 11 48 -2 69 -13 19 -28 24 -84 30
-142 15 -236 112 -261 271 -14 90 8 142 73 171 49 22 100 17 134 -12z m-1064
-113 c-3 -5 -1 -12 5 -16 13 -8 3 -25 -16 -25 -17 0 -18 22 -2 38 14 14 21 16
13 3z m-35 -76 c0 -8 -7 -15 -15 -15 -9 0 -12 6 -9 15 4 8 10 15 15 15 5 0 9
-7 9 -15z m1407 -21 c-3 -3 -12 -4 -19 -1 -8 3 -5 6 6 6 11 1 17 -2 13 -5z
m-2257 -168 c0 -3 -4 -8 -10 -11 -5 -3 -10 -1 -10 4 0 6 5 11 10 11 6 0 10 -2
10 -4z m176 -1187 c24 -26 25 -30 7 -20 -13 6 -27 20 -33 31 -15 28 -8 25 26
-11z m190 -177 c-8 -7 -69 31 -74 46 -2 8 14 1 37 -14 23 -15 39 -29 37 -32z
m497 -89 c-7 -2 -21 -2 -30 0 -10 3 -4 5 12 5 17 0 24 -2 18 -5z"/>
<path d="M1624 1917 c0 -29 4 -51 8 -49 4 2 21 9 38 15 19 7 28 17 25 25 -3 8
-5 17 -5 21 0 4 -15 15 -34 23 l-33 16 1 -51z"/>
<path d="M1754 1855 c-10 -8 -27 -15 -36 -15 -21 0 -24 -20 -3 -20 25 0 65 23
65 37 0 16 -2 16 -26 -2z"/>
<path d="M1700 1728 c0 -30 1 -31 16 -16 9 9 14 24 11 32 -11 27 -27 17 -27
-16z"/>
<path d="M2216 1238 c2 -24 10 -118 19 -209 8 -92 15 -173 15 -182 0 -8 24
-38 53 -66 63 -61 77 -97 67 -173 -14 -99 -67 -179 -152 -227 -66 -38 -53 -42
151 -49 196 -6 304 8 390 48 58 28 60 30 67 75 12 84 -33 218 -110 325 -33 46
-33 46 -21 106 7 32 11 60 10 61 -1 2 -41 -13 -89 -33 -48 -20 -89 -34 -90
-32 -2 1 -22 29 -46 61 -23 31 -46 57 -50 57 -4 0 -54 63 -110 140 -56 77
-103 140 -105 140 -2 0 -1 -19 1 -42z"/>
</g>
</svg>
