<svg xmlns="http://www.w3.org/2000/svg" viewBox="0 0 512 512"><path d="M165.983 117.972a7.5 7.5 0 00-10.496 1.525c-8.542 11.446-13.057 25.082-13.057 39.431v130.076c0 4.142 3.357 7.5 7.5 7.5s7.5-3.358 7.5-7.5V158.928c0-11.091 3.485-21.624 10.078-30.46a7.5 7.5 0 00-1.525-10.496z"/><path d="M458.364.934a12.265 12.265 0 00-13.415 2.708l-34.662 34.894-34.663-34.894A12.263 12.263 0 00362.209.934a12.312 12.312 0 00-7.637 11.426v160.159c0 4.142 3.357 7.5 7.5 7.5s7.5-3.358 7.5-7.5V18.834l35.395 35.629a7.497 7.497 0 0010.641 0l35.393-35.629v363.359c0 27.98-22.59 50.743-50.357 50.743h-54.917c14.553-12.068 23.846-30.334 23.846-50.743V201.64c0-4.142-3.357-7.5-7.5-7.5s-7.5 3.358-7.5 7.5v180.553c0 27.98-22.59 50.743-50.357 50.743h-38.571c-27.767 0-50.356-22.763-50.356-50.743V158.928c0-20.409-9.292-38.675-23.846-50.743h54.917c27.767 0 50.356 22.763 50.356 50.743v223.265c0 13.38 3.974 26.258 11.492 37.244a7.501 7.501 0 0012.379-8.471c-5.804-8.48-8.871-18.429-8.871-28.772V158.928c0-36.251-29.318-65.743-65.356-65.743h-135c-36.04 0-65.359 29.492-65.359 65.743V499.64c0 5.028 2.997 9.514 7.637 11.426 1.524.628 3.118.934 4.697.934 3.209 0 6.354-1.262 8.718-3.642l34.662-34.894 34.663 34.894a12.263 12.263 0 0013.415 2.708 12.312 12.312 0 007.637-11.426V318.125c0-4.142-3.357-7.5-7.5-7.5s-7.5 3.358-7.5 7.5v175.04l-35.395-35.629a7.5 7.5 0 00-10.641 0l-35.393 35.629V158.928c0-27.98 22.59-50.743 50.357-50.743h38.571c27.768 0 50.357 22.763 50.357 50.743v223.265c0 36.251 29.318 65.743 65.356 65.743h135c36.038 0 65.357-29.492 65.357-65.743V12.36A12.307 12.307 0 00458.364.934z"/></svg>